<?xml version="1.0"?>
<svg xmlns="http://www.w3.org/2000/svg" id="Outline" viewBox="0 0 512 512" width="512px" height="512px" class=""><g><path d="M496,416H477.445l18.131-53.43a8,8,0,0,0-7.6-10.562,33.181,33.181,0,0,0-.4-5.206,32.406,32.406,0,0,0-8.246-17.074,71.983,71.983,0,0,0-26.923-66.392A25.746,25.746,0,0,0,448,231.581l0,0a27.473,27.473,0,0,0-37.894,0L408,233.606l-2.105-2.027a27.474,27.474,0,0,0-37.9,0,25.746,25.746,0,0,0-4.414,31.755,71.983,71.983,0,0,0-26.923,66.392,32.4,32.4,0,0,0-8.246,17.073,33.256,33.256,0,0,0-.4,5.212,7.983,7.983,0,0,0-7.6,10.557L338.555,416H320a8,8,0,0,0-8,8,40.045,40.045,0,0,0,40,40h32v24a8,8,0,0,0,8,8h32a8,8,0,0,0,8-8V464h32a40.045,40.045,0,0,0,40-40A8,8,0,0,0,496,416Zm-108.132,0-9.957-41.072c6.87.488,14.264.846,22.089,1V416Zm-43.616-61.066a17.04,17.04,0,0,1-.034-5.626C345.44,341.6,351.59,336,358.84,336h98.32c7.25,0,13.4,5.6,14.622,13.308a17.055,17.055,0,0,1-.093,5.966C458.941,357.438,437.608,360,408,360A405.183,405.183,0,0,1,344.252,354.934Zm71.748,21c7.992-.121,15.341-.418,22.047-.834L428.132,416H416Zm38.847-2.22c8.545-.894,15.577-1.933,21.035-2.9l-14.089,41.519c-.086.255-.16.514-.221.775a3.417,3.417,0,0,1-1.682,1.968,6.975,6.975,0,0,1-3.539.923H444.6ZM379.1,243.1a11.475,11.475,0,0,1,15.7,0l7.655,7.372a8,8,0,0,0,11.1,0L421.2,243.1a11.475,11.475,0,0,1,15.7,0,9.776,9.776,0,0,1,0,14.281L408,285.218l-28.9-27.832a9.777,9.777,0,0,1,0-14.282Zm-4.622,32.044,25.679,24.729a27.379,27.379,0,0,0,3.249,2.672,8,8,0,0,0,9.19,0,27.377,27.377,0,0,0,3.247-2.67l25.681-24.732A56.313,56.313,0,0,1,464,320c0,.26-.021.52-.024.78a30.109,30.109,0,0,0-6.816-.78H358.84a30.109,30.109,0,0,0-6.816.78c0-.26-.024-.52-.024-.78A56.308,56.308,0,0,1,374.477,275.148Zm-20.05,137.961a8.041,8.041,0,0,0-.22-.775L340,370.478c5.588.939,12.711,1.989,21.074,2.919L371.405,416H359.649C356.835,416,354.748,414.5,354.427,413.109ZM416,480H400V464h16Zm48-32H352a24.042,24.042,0,0,1-22.629-16H486.629A24.042,24.042,0,0,1,464,448Z" data-original="#000000" class="active-path" data-old_color="#000000" fill="#0A5386"/><path d="M312,256a40.045,40.045,0,0,0,40-40,8,8,0,0,0-8-8H325.445l18.131-53.43a8,8,0,0,0-7.6-10.562,33.181,33.181,0,0,0-.4-5.206,32.406,32.406,0,0,0-8.246-17.074,71.983,71.983,0,0,0-26.923-66.392A25.746,25.746,0,0,0,296,23.581l0,0a27.473,27.473,0,0,0-37.894,0L256,25.606l-2.1-2.027a27.474,27.474,0,0,0-37.9,0,25.746,25.746,0,0,0-4.414,31.755,71.983,71.983,0,0,0-26.923,66.392,32.4,32.4,0,0,0-8.246,17.073,33.278,33.278,0,0,0-.4,5.213,7.981,7.981,0,0,0-7.595,10.556L186.555,208H168a8,8,0,0,0-8,8,40.045,40.045,0,0,0,40,40h32V488a8,8,0,0,0,8,8h32a8,8,0,0,0,8-8V256Zm-76.132-48-9.957-41.072c6.87.488,14.264.846,22.089,1V208Zm-43.616-61.066a17.04,17.04,0,0,1-.034-5.626C193.44,133.6,199.59,128,206.84,128h98.32c7.25,0,13.4,5.6,14.622,13.308a17.055,17.055,0,0,1-.093,5.966C306.941,149.438,285.608,152,256,152A405.183,405.183,0,0,1,192.252,146.934Zm71.748,21c7.992-.121,15.341-.418,22.047-.834L276.132,208H264Zm38.847-2.22c8.545-.894,15.577-1.933,21.035-2.9l-14.089,41.519c-.086.255-.16.514-.221.775a3.417,3.417,0,0,1-1.682,1.968,6.975,6.975,0,0,1-3.539.923H292.6ZM227.1,35.1a11.475,11.475,0,0,1,15.7,0l7.655,7.372a8,8,0,0,0,11.1,0L269.2,35.1a11.475,11.475,0,0,1,15.7,0,9.776,9.776,0,0,1,0,14.281L256,77.218,227.1,49.386a9.777,9.777,0,0,1,0-14.282Zm-4.622,32.044,25.679,24.729a27.379,27.379,0,0,0,3.249,2.672,8,8,0,0,0,9.19,0,27.377,27.377,0,0,0,3.247-2.67l25.681-24.732A56.313,56.313,0,0,1,312,112c0,.26-.021.52-.024.78a30.109,30.109,0,0,0-6.816-.78H206.84a30.109,30.109,0,0,0-6.816.78c0-.26-.024-.52-.024-.78A56.308,56.308,0,0,1,222.477,67.148Zm-20.05,137.961a8.041,8.041,0,0,0-.22-.775L188,162.478c5.588.939,12.711,1.989,21.074,2.919L219.405,208H207.649C204.835,208,202.748,206.5,202.427,205.109ZM177.371,224H334.629A24.042,24.042,0,0,1,312,240H200A24.042,24.042,0,0,1,177.371,224ZM264,480H248V256h16Z" data-original="#000000" class="active-path" data-old_color="#000000" fill="#0A5386"/><path d="M192,416H173.445l18.131-53.43a8,8,0,0,0-7.595-10.562,33.181,33.181,0,0,0-.4-5.206,32.406,32.406,0,0,0-8.246-17.074,71.983,71.983,0,0,0-26.923-66.392A25.746,25.746,0,0,0,144,231.581l0,0a27.473,27.473,0,0,0-37.894,0L104,233.606l-2.105-2.027a27.474,27.474,0,0,0-37.9,0,25.746,25.746,0,0,0-4.414,31.755,71.983,71.983,0,0,0-26.923,66.392A32.4,32.4,0,0,0,24.415,346.8a33.256,33.256,0,0,0-.4,5.212,7.983,7.983,0,0,0-7.595,10.557L34.555,416H16a8,8,0,0,0-8,8,40.045,40.045,0,0,0,40,40H80v24a8,8,0,0,0,8,8h32a8,8,0,0,0,8-8V464h32a40.045,40.045,0,0,0,40-40A8,8,0,0,0,192,416ZM83.868,416l-9.957-41.072c6.87.488,14.264.846,22.089,1V416ZM40.252,354.934a17.04,17.04,0,0,1-.034-5.626C41.44,341.6,47.59,336,54.84,336h98.32c7.25,0,13.4,5.6,14.622,13.308a17.055,17.055,0,0,1-.093,5.966C154.941,357.438,133.608,360,104,360A405.183,405.183,0,0,1,40.252,354.934Zm71.748,21c7.992-.121,15.341-.418,22.047-.834L124.132,416H112Zm38.847-2.22c8.545-.894,15.577-1.933,21.035-2.9l-14.089,41.519c-.086.255-.16.514-.221.775a3.417,3.417,0,0,1-1.682,1.968,6.975,6.975,0,0,1-3.539.923H140.6ZM75.1,243.1a11.475,11.475,0,0,1,15.7,0l7.655,7.372a8,8,0,0,0,11.1,0L117.2,243.1a11.475,11.475,0,0,1,15.7,0,9.776,9.776,0,0,1,0,14.281L104,285.218,75.1,257.386a9.777,9.777,0,0,1,0-14.282Zm-4.622,32.044,25.679,24.729a27.379,27.379,0,0,0,3.249,2.672,8,8,0,0,0,9.19,0,27.377,27.377,0,0,0,3.247-2.67l25.681-24.732A56.313,56.313,0,0,1,160,320c0,.26-.021.52-.024.78a30.109,30.109,0,0,0-6.816-.78H54.84a30.109,30.109,0,0,0-6.816.78c0-.26-.024-.52-.024-.78A56.308,56.308,0,0,1,70.477,275.148ZM50.427,413.109a8.041,8.041,0,0,0-.22-.775L36,370.478c5.588.939,12.711,1.989,21.074,2.919L67.405,416H55.649C52.835,416,50.748,414.5,50.427,413.109ZM112,480H96V464h16Zm48-32H48a24.042,24.042,0,0,1-22.629-16H182.629A24.042,24.042,0,0,1,160,448Z" data-original="#000000" class="active-path" data-old_color="#000000" fill="#0A5386"/></g> </svg>
