<?xml version="1.0"?>
<svg xmlns="http://www.w3.org/2000/svg" id="icons" enable-background="new 0 0 64 64" height="512px" viewBox="0 0 64 64" width="512px"><g><g><g><g><path d="m5.001 50c-2.206 0-4-1.794-4-4 0-.553.447-1 1-1s1 .447 1 1c0 1.103.897 2 2 2 .553 0 1 .447 1 1s-.447 1-1 1z" data-original="#000000" class="active-path" data-old_color="#000000" fill="#0A5386"/></g></g><g><g><path d="m58.999 50c-.553 0-1-.447-1-1s.447-1 1-1c1.103 0 2-.897 2-2 0-.553.447-1 1-1s1 .447 1 1c0 2.206-1.794 4-4 4z" data-original="#000000" class="active-path" data-old_color="#000000" fill="#0A5386"/></g></g><g><g><path d="m58.999 50h-53.998c-.553 0-1-.447-1-1s.447-1 1-1h53.998c.553 0 1 .447 1 1s-.447 1-1 1z" data-original="#000000" class="active-path" data-old_color="#000000" fill="#0A5386"/></g></g><g><g><path d="m61.999 47c-.553 0-1-.447-1-1v-1c0-.553.447-1 1-1s1 .447 1 1v1c0 .553-.447 1-1 1z" data-original="#000000" class="active-path" data-old_color="#000000" fill="#0A5386"/></g></g><g><g><path d="m2.001 47c-.553 0-1-.447-1-1v-1c0-.553.447-1 1-1s1 .447 1 1v1c0 .553-.447 1-1 1z" data-original="#000000" class="active-path" data-old_color="#000000" fill="#0A5386"/></g></g><g><g><path d="m61.999 46h-59.998c-.553 0-1-.447-1-1s.447-1 1-1h59.998c.553 0 1 .447 1 1s-.447 1-1 1z" data-original="#000000" class="active-path" data-old_color="#000000" fill="#0A5386"/></g></g><g><g><path d="m58.999 34.988c-.553 0-1-.447-1-1 0-14.33-11.663-25.988-25.999-25.988s-25.999 11.658-25.999 25.988c0 .553-.447 1-1 1s-1-.447-1-1c0-15.433 12.561-27.988 27.999-27.988s27.999 12.556 27.999 27.989c0 .552-.447.999-1 .999z" data-original="#000000" class="active-path" data-old_color="#000000" fill="#0A5386"/></g></g><g><g><path d="m58.998 46c-.553 0-1-.447-1-1v-10.98c0-.553.447-1 1-1s1 .447 1 1v10.98c0 .553-.447 1-1 1z" data-original="#000000" class="active-path" data-old_color="#000000" fill="#0A5386"/></g></g><g><g><path d="m5.002 46c-.553 0-1-.447-1-1v-10.98c0-.553.447-1 1-1s1 .447 1 1v10.98c0 .553-.447 1-1 1z" data-original="#000000" class="active-path" data-old_color="#000000" fill="#0A5386"/></g></g><g><g><path d="m32 8c-2.206 0-4-1.794-4-4s1.794-4 4-4 4 1.794 4 4-1.794 4-4 4zm0-6c-1.103 0-2 .897-2 2s.897 2 2 2 2-.897 2-2-.897-2-2-2z" data-original="#000000" class="active-path" data-old_color="#000000" fill="#0A5386"/></g></g><g><g><path d="m30.002 60c-.553 0-1-.447-1-1v-9.979c0-.553.447-1 1-1s1 .447 1 1v9.979c0 .553-.447 1-1 1z" data-original="#000000" class="active-path" data-old_color="#000000" fill="#0A5386"/></g></g><g><g><path d="m34 60c-.553 0-1-.447-1-1v-9.979c0-.553.447-1 1-1s1 .447 1 1v9.979c0 .553-.447 1-1 1z" data-original="#000000" class="active-path" data-old_color="#000000" fill="#0A5386"/></g></g><g><g><path d="m16.002 64c-.553 0-1-.447-1-1 0-2.757 2.243-5 5-5 .553 0 1 .447 1 1s-.447 1-1 1c-1.654 0-3 1.346-3 3 0 .553-.447 1-1 1z" data-original="#000000" class="active-path" data-old_color="#000000" fill="#0A5386"/></g></g><g><g><path d="m48.001 64c-.553 0-1-.447-1-1 0-1.654-1.346-3-3-3-.553 0-1-.447-1-1s.447-1 1-1c2.757 0 5 2.243 5 5 0 .553-.447 1-1 1z" data-original="#000000" class="active-path" data-old_color="#000000" fill="#0A5386"/></g></g><g><g><path d="m44.001 60h-23.999c-.553 0-1-.447-1-1s.447-1 1-1h23.999c.553 0 1 .447 1 1s-.447 1-1 1z" data-original="#000000" class="active-path" data-old_color="#000000" fill="#0A5386"/></g></g><g><g><path d="m48 63.998h-31.998c-.553 0-1-.447-1-1s.447-1 1-1h31.998c.553 0 1 .447 1 1s-.447 1-1 1z" data-original="#000000" class="active-path" data-old_color="#000000" fill="#0A5386"/></g></g><g><g><g><path d="m11.002 45.873c-.553 0-1-.447-1-1v-15.873c0-.552.447-1 1-1s1 .448 1 1v15.873c0 .553-.447 1-1 1z" data-original="#000000" class="active-path" data-old_color="#000000" fill="#0A5386"/></g></g><g><g><path d="m52.998 46c-.553 0-1-.447-1-1v-16c0-.552.447-1 1-1s1 .448 1 1v16c0 .553-.447 1-1 1z" data-original="#000000" class="active-path" data-old_color="#000000" fill="#0A5386"/></g></g><g><g><path d="m52.998 34h-41.996c-.553 0-1-.447-1-1 0-.552.447-1 1-1h41.996c.553 0 1 .448 1 1 0 .553-.447 1-1 1z" data-original="#000000" class="active-path" data-old_color="#000000" fill="#0A5386"/></g></g><g><g><path d="m52.998 38h-41.996c-.553 0-1-.447-1-1s.447-1 1-1h41.996c.553 0 1 .447 1 1s-.447 1-1 1z" data-original="#000000" class="active-path" data-old_color="#000000" fill="#0A5386"/></g></g><g><g><path d="m52.998 30h-41.996c-.553 0-1-.448-1-1s.447-1 1-1h41.996c.553 0 1 .448 1 1s-.447 1-1 1z" data-original="#000000" class="active-path" data-old_color="#000000" fill="#0A5386"/></g></g><g><g><path d="m52.998 42h-41.996c-.553 0-1-.447-1-1s.447-1 1-1h41.996c.553 0 1 .447 1 1s-.447 1-1 1z" data-original="#000000" class="active-path" data-old_color="#000000" fill="#0A5386"/></g></g></g><g><g><path d="m17 30.003c-.553 0-1-.448-1-1 0-1.102-.896-1.999-1.999-1.999s-1.999.897-1.999 1.999c0 .552-.447 1-1 1s-1-.448-1-1c0-2.205 1.794-3.999 3.999-3.999s3.999 1.794 3.999 3.999c0 .553-.447 1-1 1z" data-original="#000000" class="active-path" data-old_color="#000000" fill="#0A5386"/></g></g><g><g><path d="m22.999 30.003c-.553 0-1-.448-1-1 0-1.102-.896-1.999-1.999-1.999s-1.999.897-1.999 1.999c0 .552-.447 1-1 1s-1-.448-1-1c0-2.205 1.794-3.999 3.999-3.999s3.999 1.794 3.999 3.999c0 .553-.447 1-1 1z" data-original="#000000" class="active-path" data-old_color="#000000" fill="#0A5386"/></g></g><g><g><path d="m28.998 30.003c-.553 0-1-.448-1-1 0-1.102-.896-1.999-1.999-1.999s-1.999.897-1.999 1.999c0 .552-.447 1-1 1s-1-.448-1-1c0-2.205 1.794-3.999 3.999-3.999s3.999 1.794 3.999 3.999c0 .553-.447 1-1 1z" data-original="#000000" class="active-path" data-old_color="#000000" fill="#0A5386"/></g></g><g><g><path d="m34.997 30.003c-.553 0-1-.448-1-1 0-1.102-.896-1.999-1.999-1.999s-1.999.897-1.999 1.999c0 .552-.447 1-1 1s-1-.448-1-1c0-2.205 1.794-3.999 3.999-3.999s3.999 1.794 3.999 3.999c0 .553-.447 1-1 1z" data-original="#000000" class="active-path" data-old_color="#000000" fill="#0A5386"/></g></g><g><g><path d="m40.996 30.003c-.553 0-1-.448-1-1 0-1.102-.896-1.999-1.999-1.999s-1.999.897-1.999 1.999c0 .552-.447 1-1 1s-1-.448-1-1c0-2.205 1.794-3.999 3.999-3.999s3.999 1.794 3.999 3.999c0 .553-.447 1-1 1z" data-original="#000000" class="active-path" data-old_color="#000000" fill="#0A5386"/></g></g><g><g><path d="m46.995 30.003c-.553 0-1-.448-1-1 0-1.102-.896-1.999-1.999-1.999s-1.999.897-1.999 1.999c0 .552-.447 1-1 1s-1-.448-1-1c0-2.205 1.794-3.999 3.999-3.999s3.999 1.794 3.999 3.999c0 .553-.447 1-1 1z" data-original="#000000" class="active-path" data-old_color="#000000" fill="#0A5386"/></g></g><g><g><path d="m52.994 30.003c-.553 0-1-.448-1-1 0-1.102-.896-1.999-1.999-1.999s-1.999.897-1.999 1.999c0 .552-.447 1-1 1s-1-.448-1-1c0-2.205 1.794-3.999 3.999-3.999s3.999 1.794 3.999 3.999c0 .553-.447 1-1 1z" data-original="#000000" class="active-path" data-old_color="#000000" fill="#0A5386"/></g></g><g><g><path d="m32.002 27.004c-.802 0-1.556-.312-2.123-.878-1.17-1.171-1.17-3.076-.001-4.246 1.137-1.135 3.112-1.134 4.247-.001 1.17 1.172 1.17 3.077 0 4.247-.567.566-1.321.878-2.123.878zm0-4.004c-.268 0-.52.104-.709.293-.39.39-.39 1.027.001 1.418.377.377 1.038.378 1.417-.001.391-.39.391-1.026-.001-1.418-.189-.188-.44-.292-.708-.292z" data-original="#000000" class="active-path" data-old_color="#000000" fill="#0A5386"/></g></g><g><g><path d="m33.418 23.586c-.256 0-.512-.098-.707-.293-.391-.391-.391-1.023 0-1.414l2.121-2.121c.391-.391 1.023-.391 1.414 0s.391 1.023 0 1.414l-2.121 2.121c-.195.196-.451.293-.707.293z" data-original="#000000" class="active-path" data-old_color="#000000" fill="#0A5386"/></g></g></g></g> </svg>
